<svg width="92" height="46" viewBox="0 0 92 46" fill="none" xmlns="http://www.w3.org/2000/svg">
<path d="M47.6267 21.5274H41.4921V25.7637H49.7239V27.836H30.3877V25.7637H39.0303V21.5274H32.9588V11.8047H47.3036V13.8351H35.3598V19.4954H47.6267V21.5274Z" fill="white"/>
<path d="M60.1419 34.5283V27.8344H51.719V25.7621H71.0531V27.8344H62.606V34.5283H60.1419ZM68.6982 24.3778C66.2785 23.3606 63.8621 21.9574 61.3732 20.2291C58.8919 21.9573 56.4677 23.3606 54.052 24.3778L52.9484 22.6913C55.3249 21.5885 57.4849 20.2291 59.3237 18.7612C59.8188 18.3464 60.1421 17.8095 60.1421 17.1383V15.1523H62.6061V17.1383C62.6061 17.8095 62.9292 18.3464 63.4265 18.7612C65.2652 20.2291 67.4254 21.5884 69.8011 22.6913L68.6982 24.3778Z" fill="white"/>
<path d="M72.8599 19.4095H80.529V15.5866H72.8599V13.5751H82.9283V21.3744H75.2552V25.8246H77.824C80.3131 25.8246 82.7753 25.6736 85.1721 25.2418V27.2088C82.8402 27.662 80.3132 27.8361 77.824 27.8361H72.8599V19.4095ZM86.2508 32.0906V12.5391H88.6515V32.0908H86.2508V32.0906Z" fill="white"/>
<path d="M3.34814 17.8821C3.34814 19.5966 4.73228 20.9886 6.44885 20.9886H10.5873L13.5103 23.9094C13.6367 24.0356 13.8047 24.0971 13.9689 24.0971C14.1335 24.0971 14.3015 24.0358 14.4239 23.9094L17.3489 20.9886H21.4873C23.2057 20.9886 24.5899 19.5966 24.5899 17.8821V14.5695C24.5899 13.7146 24.2458 12.9407 23.6855 12.3788C22.9267 11.809 21.9861 11.4688 20.9655 11.4688H6.97632C5.95159 11.4688 5.01135 11.809 4.24852 12.3806C3.69422 12.9426 3.34814 13.7145 3.34814 14.5693V17.8821Z" fill="white"/>
<path d="M17.3489 31.422H21.4873C23.2057 31.422 24.5899 30.0319 24.5899 28.3195V25.005C24.5899 23.2938 23.2057 21.9025 21.4873 21.9025H17.7273L15.074 24.5595C14.7776 24.8519 14.3855 25.0141 13.9688 25.0141C13.552 25.0141 13.1622 24.8519 12.8639 24.5595L10.2067 21.9023H6.44885C4.73244 21.9023 3.34814 23.2937 3.34814 25.0049V28.3193C3.34814 30.0318 4.73228 31.4219 6.44885 31.4219H10.5873L13.5103 34.3427C13.6367 34.4709 13.8047 34.5338 13.9689 34.5338C14.1335 34.5338 14.3015 34.4709 14.4239 34.3427L17.3489 31.422Z" fill="white"/>
</svg>
